<svg width="24" height="24" viewBox="0 0 24 24" fill="none" xmlns="http://www.w3.org/2000/svg">
<path d="M7.0957 18.6226C4.67871 18.6226 3.19336 17.5767 2.5957 16.3286C2.45508 16.0386 2.39355 15.7573 2.39355 15.4937C2.39355 14.8081 2.83301 14.3774 3.5625 14.3774C4.08984 14.3774 4.42383 14.5884 4.6875 15.0718C5.13574 15.9595 5.82129 16.4868 7.13965 16.4868C8.44043 16.4868 9.33691 15.731 9.33691 14.6763C9.3457 13.4458 8.44043 12.7603 6.90234 12.7603H6.34863C5.70703 12.7603 5.33789 12.3823 5.33789 11.811C5.33789 11.2573 5.70703 10.8706 6.34863 10.8706H6.86719C8.19434 10.8706 9.05566 10.1499 9.05566 9.11279C9.05566 8.09326 8.37012 7.4165 7.08691 7.4165C6.01465 7.4165 5.36426 7.86475 4.95117 8.76123C4.66113 9.35889 4.35352 9.57861 3.75586 9.57861C3.01758 9.57861 2.63965 9.14795 2.63965 8.50635C2.63965 8.20752 2.70117 7.95264 2.83301 7.65381C3.39551 6.41455 4.83691 5.37744 7.07812 5.37744C9.75879 5.37744 11.5693 6.70459 11.5693 8.73486C11.5693 10.3433 10.418 11.3979 8.92383 11.7056V11.7583C10.8135 11.9341 12.0352 13.0415 12.0352 14.7905C12.0352 17.0933 10.04 18.6226 7.0957 18.6226Z" fill="#070707"/>
<path d="M14.4961 18.5259C13.8193 18.5259 13.3359 18.0952 13.3359 17.48C13.3359 17.1724 13.4326 16.9263 13.6787 16.6011L15.8848 13.6479L13.6875 10.6509C13.5029 10.4048 13.415 10.1499 13.415 9.85107C13.415 9.20947 13.9424 8.72607 14.6455 8.72607C15.1641 8.72607 15.4365 8.91064 15.7793 9.45557L17.5371 12.1011H17.5898L19.3125 9.47314C19.6553 8.93701 19.9277 8.72607 20.4023 8.72607C21.123 8.72607 21.6064 9.16553 21.6064 9.81592C21.6064 10.1323 21.5098 10.3872 21.2637 10.7036L19.1104 13.5776L21.2988 16.6011C21.4922 16.8647 21.5801 17.1108 21.5801 17.3921C21.5801 18.0864 21.0527 18.5259 20.3584 18.5259C19.8574 18.5259 19.6113 18.3149 19.3213 17.8755L17.4492 15.0718H17.3965L15.5596 17.8315C15.208 18.3765 14.9531 18.5259 14.4961 18.5259Z" fill="#070707"/>
</svg>
