<svg width="20" height="20" viewBox="0 0 20 20" fill="none" xmlns="http://www.w3.org/2000/svg">
<path d="M10.0009 1.66663C7.92979 1.66663 6.25085 3.34556 6.25085 5.41663C6.25085 7.48769 7.92979 9.16663 10.0009 9.16663C12.072 9.16663 13.7509 7.48769 13.7509 5.41663C13.7509 3.34556 12.072 1.66663 10.0009 1.66663Z" fill="#8D8D8D"/>
<path d="M3.0808 15.5803C3.79486 12.4031 6.41823 10 10.0009 10C11.156 10 12.2115 10.2498 13.1354 10.6949C11.0658 11.0913 10.0009 13.0995 10.0009 14.7917C10.0009 15.8263 10.3937 16.7527 10.9164 17.5H4.66624C3.72028 17.5 2.83931 16.6548 3.0808 15.5803Z" fill="#8D8D8D"/>
<path fill-rule="evenodd" clip-rule="evenodd" d="M13.8896 12.2916C13.3189 12.2916 12.7494 12.521 12.3269 12.9717C11.9004 13.4266 11.6675 14.0577 11.6675 14.7916C11.6675 15.9817 12.4989 16.8908 13.1419 17.422C13.4859 17.706 13.8351 17.9315 14.1176 18.0885C14.2586 18.1668 14.3911 18.2325 14.5053 18.2815C14.5616 18.3056 14.6228 18.3297 14.6843 18.3494L14.6868 18.3502C14.7237 18.362 14.8505 18.4027 15.0008 18.4027C15.1511 18.4027 15.2778 18.362 15.3148 18.3502L15.3172 18.3494C15.3787 18.3297 15.44 18.3056 15.4963 18.2815C15.6105 18.2325 15.743 18.1668 15.884 18.0885C16.1664 17.9315 16.5157 17.706 16.8596 17.422C17.5026 16.8908 18.3341 15.9817 18.3341 14.7916C18.3341 14.0577 18.1012 13.4266 17.6747 12.9717C17.2522 12.521 16.6827 12.2916 16.1119 12.2916C15.6544 12.2916 15.2776 12.4133 15.0008 12.5481C14.7241 12.4133 14.3471 12.2916 13.8896 12.2916Z" fill="#8D8D8D"/>
</svg>
