<svg width="20" height="20" viewBox="0 0 20 20" fill="none" xmlns="http://www.w3.org/2000/svg">
<path fill-rule="evenodd" clip-rule="evenodd" d="M8.28151 2.58631C8.66454 2.01174 9.30938 1.66663 9.99996 1.66663C10.6905 1.66663 11.3354 2.01174 11.7184 2.58631L12.1935 3.29892C12.4338 3.65943 12.8722 3.83352 13.2945 3.73609L13.8805 3.60085C14.586 3.43803 15.3257 3.65017 15.8377 4.16218C16.3498 4.67421 16.5619 5.41388 16.399 6.11944L16.2638 6.70549C16.1664 7.12768 16.3405 7.5661 16.701 7.80644L17.4136 8.28151C17.9882 8.66454 18.3333 9.30938 18.3333 9.99996C18.3333 10.6905 17.9882 11.3354 17.4136 11.7184L16.701 12.1935C16.3405 12.4338 16.1664 12.8722 16.2638 13.2945L16.399 13.8805C16.5619 14.586 16.3498 15.3257 15.8377 15.8377C15.3257 16.3498 14.586 16.5619 13.8805 16.399L13.2945 16.2638C12.8722 16.1664 12.4338 16.3405 12.1935 16.701L11.7184 17.4136C11.3354 17.9882 10.6905 18.3333 9.99996 18.3333C9.30938 18.3333 8.66454 17.9882 8.28151 17.4136L7.80644 16.701C7.5661 16.3405 7.12768 16.1664 6.70549 16.2638L6.11944 16.399C5.41388 16.5619 4.67421 16.3498 4.16218 15.8377C3.65017 15.3257 3.43803 14.586 3.60085 13.8805L3.73609 13.2945C3.83352 12.8722 3.65943 12.4338 3.29892 12.1935L2.58631 11.7184C2.01174 11.3354 1.66663 10.6905 1.66663 9.99996C1.66663 9.30938 2.01174 8.66454 2.58631 8.28151L3.29892 7.80644C3.65943 7.5661 3.83352 7.12768 3.73609 6.70549L3.60085 6.11944C3.43803 5.41388 3.65016 4.67421 4.16218 4.16218C4.67421 3.65016 5.41388 3.43803 6.11944 3.60085L6.70549 3.73609C7.12768 3.83352 7.5661 3.65943 7.80644 3.29892L8.28151 2.58631ZM7.39579 9.99996C7.39579 8.56171 8.56171 7.39579 9.99996 7.39579C11.4382 7.39579 12.6041 8.56171 12.6041 9.99996C12.6041 11.4382 11.4382 12.6041 9.99996 12.6041C8.56171 12.6041 7.39579 11.4382 7.39579 9.99996Z" fill="#8D8D8D"/>
</svg>
