<svg width="36" height="36" viewBox="0 0 36 36" fill="none" xmlns="http://www.w3.org/2000/svg">
<path fill-rule="evenodd" clip-rule="evenodd" d="M3 18C3 9.71572 9.71572 3 18 3C26.2842 3 33 9.71572 33 18C33 26.2842 26.2842 33 18 33C9.71572 33 3 26.2842 3 18ZM24 19.4998C24.8284 19.4998 25.5 18.8283 25.5 17.9998C25.5 17.1714 24.8284 16.4998 24 16.4998L19.5 16.5V12.0002C19.5 11.1718 18.8284 10.5002 18 10.5002C17.1715 10.5002 16.5 11.1718 16.5 12.0002V16.5L12 16.5001C11.1715 16.5001 10.5 17.1718 10.5 18.0001C10.5 18.8286 11.1716 19.5001 12 19.5001L16.5 19.5V24C16.5 24.8284 17.1715 25.5 18 25.5C18.8284 25.5 19.5 24.8284 19.5 24V19.5L24 19.4998Z" fill="#B2B2B2"/>
</svg>
