<svg width="20" height="20" viewBox="0 0 20 20" fill="none" xmlns="http://www.w3.org/2000/svg">
<path fill-rule="evenodd" clip-rule="evenodd" d="M17.4642 2.5357C17.7896 2.86114 17.7896 3.38878 17.4642 3.71422L13.6785 7.49996H16.6666C17.1269 7.49996 17.5 7.87306 17.5 8.33329C17.5 8.79354 17.1269 9.16663 16.6666 9.16663H11.6666C11.2064 9.16663 10.8333 8.79354 10.8333 8.33329V3.33329C10.8333 2.87306 11.2064 2.49996 11.6666 2.49996C12.1269 2.49996 12.5 2.87306 12.5 3.33329V6.32145L16.2857 2.5357C16.6111 2.21027 17.1388 2.21027 17.4642 2.5357ZM2.49996 11.6666C2.49996 11.2064 2.87306 10.8333 3.33329 10.8333H8.33329C8.79354 10.8333 9.16663 11.2064 9.16663 11.6666V16.6666C9.16663 17.1269 8.79354 17.5 8.33329 17.5C7.87306 17.5 7.49996 17.1269 7.49996 16.6666V13.6785L3.71422 17.4642C3.38878 17.7896 2.86114 17.7896 2.5357 17.4642C2.21027 17.1388 2.21027 16.6111 2.5357 16.2857L6.32145 12.5H3.33329C2.87306 12.5 2.49996 12.1269 2.49996 11.6666Z" fill="#8D8D8D"/>
</svg>
