<svg width="20" height="20" viewBox="0 0 20 20" fill="none" xmlns="http://www.w3.org/2000/svg">
<path fill-rule="evenodd" clip-rule="evenodd" d="M9.99996 18.3333C14.6023 18.3333 18.3333 14.6023 18.3333 9.99996C18.3333 5.39758 14.6023 1.66663 9.99996 1.66663C5.39758 1.66663 1.66663 5.39758 1.66663 9.99996C1.66663 14.6023 5.39758 18.3333 9.99996 18.3333ZM12.5 8.33329C12.5 9.71404 11.3807 10.8333 9.99996 10.8333C8.61921 10.8333 7.49996 9.71404 7.49996 8.33329C7.49996 6.95258 8.61921 5.83329 9.99996 5.83329C11.3807 5.83329 12.5 6.95258 12.5 8.33329ZM10.0001 16.6666C8.1348 16.6666 6.44841 15.9005 5.2384 14.6659C6.34818 13.3375 8.00405 12.5 10.0001 12.5C11.9962 12.5 13.652 13.3375 14.7619 14.6659C13.5519 15.9005 11.8655 16.6666 10.0001 16.6666Z" fill="#8D8D8D"/>
</svg>
