<svg width="20" height="20" viewBox="0 0 20 20" fill="none" xmlns="http://www.w3.org/2000/svg">
<path fill-rule="evenodd" clip-rule="evenodd" d="M10 2.5C12.5845 2.5 14.7726 3.17089 16.3258 4.47206C17.8924 5.78438 18.75 7.68606 18.75 10C18.75 12.3139 17.8924 14.2156 16.3258 15.5279C14.7726 16.8291 12.5845 17.5 10 17.5C8.58891 17.5 7.02466 17.3647 5.63867 16.7317C5.62003 16.7427 5.60069 16.7539 5.58066 16.7654C5.34818 16.8984 5.01667 17.0662 4.61932 17.2048C3.83468 17.4783 2.71715 17.662 1.6064 17.1333C1.43686 17.0527 1.31257 16.9 1.26793 16.7176C1.22328 16.5352 1.263 16.3424 1.37609 16.1925C2.57828 14.5992 2.22134 13.6254 2.20637 13.5845C2.20637 13.5845 2.2052 13.5814 2.20162 13.5728L2.19482 13.5568L2.18489 13.5332C2.12155 13.3807 1.89244 12.8177 1.67814 12.1462C1.47019 11.4945 1.25001 10.6624 1.25001 10C1.25001 7.68606 2.10758 5.78438 3.67417 4.47206C5.22746 3.17089 7.4155 2.5 10 2.5ZM5.41667 10C5.41667 10.4602 5.78977 10.8333 6.25 10.8333C6.71024 10.8333 7.08333 10.4602 7.08333 10C7.08333 9.53975 6.71024 9.16667 6.25 9.16667C5.78977 9.16667 5.41667 9.53975 5.41667 10ZM9.16667 10C9.16667 10.4602 9.53975 10.8333 10 10.8333C10.4602 10.8333 10.8333 10.4602 10.8333 10C10.8333 9.53975 10.4602 9.16667 10 9.16667C9.53975 9.16667 9.16667 9.53975 9.16667 10ZM13.75 10.8333C13.2897 10.8333 12.9167 10.4602 12.9167 10C12.9167 9.53975 13.2897 9.16667 13.75 9.16667C14.2102 9.16667 14.5833 9.53975 14.5833 10C14.5833 10.4602 14.2102 10.8333 13.75 10.8333Z" fill="#8D8D8D"/>
</svg>
