<svg width="29" height="28" viewBox="0 0 29 28" fill="none" xmlns="http://www.w3.org/2000/svg">
<path fill-rule="evenodd" clip-rule="evenodd" d="M20.4899 13.7306L18.1394 13.8331C17.2523 13.8718 16.7276 14.1175 16.4091 14.3604C16.0812 14.6104 15.8363 14.9616 15.6794 15.4085C15.3162 16.4433 15.5711 17.4903 15.7796 17.7916C16.0974 18.2509 16.491 18.5542 16.8601 18.749C17.1671 18.911 17.4089 18.9728 17.5021 18.9925H25.5335L25.4026 10.6733C25.2892 9.8307 24.8976 9.3981 24.4424 9.1104C23.9263 8.78429 23.2993 8.64639 22.889 8.62425C21.7676 8.77627 21.234 9.26755 20.9276 9.72724C20.5433 10.3037 20.4235 10.9959 20.4326 11.3701L20.4899 13.7306ZM22.7742 6.21437C18.8917 6.62694 17.9972 9.86253 18.0353 11.4288C12.7827 11.658 12.3825 17.1015 13.8099 19.1644C14.9518 20.8146 16.6457 21.3418 17.3499 21.3991H27.9697L27.7984 10.5119C27.4329 7.07389 24.2966 6.21437 22.7742 6.21437Z" fill="#070707"/>
<path fill-rule="evenodd" clip-rule="evenodd" d="M15.181 10.8198C13.7156 8.06936 9.2545 3.64573 3.13385 7.95476C1.34485 9.34912 -1.44522 13.3985 1.70646 18.441C2.63893 19.9499 5.63438 22.6927 10.1564 21.5925C11.0508 21.3442 13.1815 20.4787 13.8667 19.1035L13.2386 15.8373C12.1728 17.9193 8.80889 21.3518 4.56098 17.8679L15.181 10.8198ZM2.86747 14.2844C2.97049 14.9073 3.19877 15.4978 3.53927 16.0222L11.9587 10.5161C11.6182 9.99167 11.1722 9.5436 10.646 9.19746C10.1199 8.85132 9.52398 8.61388 8.8923 8.49871C8.26062 8.38353 7.60556 8.39288 6.96451 8.52621C6.32345 8.65954 5.70896 8.91425 5.15614 9.27578C4.60331 9.63732 4.12296 10.0986 3.74251 10.6333C3.36207 11.168 3.08898 11.7656 2.93884 12.3921C2.7887 13.0186 2.76445 13.6616 2.86747 14.2844Z" fill="#070707"/>
<path d="M14.0073 19.104L13.6455 19.2855L12.922 17.4703L13.1029 16.0181L13.2838 15.6551L14.0073 19.104Z" fill="#070707"/>
<path fill-rule="evenodd" clip-rule="evenodd" d="M10.9647 6.5995C13.0681 7.52818 14.572 9.35135 15.3159 10.7474L15.3816 10.8707L4.82063 17.8796C5.80441 18.6493 6.73064 19.0373 7.58107 19.1613C8.47794 19.2922 9.30057 19.131 10.0301 18.8C11.3598 18.1967 12.377 17.0302 12.944 16.0569L12.9544 15.973L12.9747 15.9323C13.0189 15.4707 13.1162 15.0058 13.2734 14.558C13.5709 13.7102 14.0849 12.9174 14.8659 12.3218C15.6187 11.7479 16.6119 11.3631 17.8815 11.2833C17.8908 10.4767 18.1261 9.32559 18.8074 8.3036C19.5362 7.21048 20.7706 6.27295 22.7581 6.06175L22.7661 6.0609H22.7742C23.5584 6.0609 24.7527 6.28112 25.8016 6.94401C26.8567 7.61074 27.7622 8.7247 27.9504 10.4957L27.9511 10.5026L28.125 21.5526H17.3437L17.3375 21.5521C16.628 21.4943 15.0023 20.9919 13.8359 19.4606C13.4406 20.055 12.8044 20.5372 12.166 20.9038C11.4234 21.3302 10.6551 21.6133 10.1971 21.7404L10.1948 21.7411L10.1924 21.7417C5.58693 22.8621 2.53228 20.0682 1.5767 18.5222C-0.0221871 15.9639 -0.118764 13.6457 0.420573 11.7869C0.958007 9.93463 2.12383 8.54766 3.04005 7.83355L3.04298 7.83126L3.04603 7.82912C6.14735 5.64574 8.84918 5.66546 10.9647 6.5995ZM14.0599 19.2492C15.1628 20.7147 16.7095 21.1908 17.3562 21.2456H27.8143L27.6456 10.5214C27.4668 8.85828 26.6224 7.82544 25.6387 7.20375C24.6511 6.57965 23.5206 6.36937 22.7822 6.36785C20.892 6.57087 19.7402 7.45635 19.0616 8.47428C18.3778 9.49993 18.1697 10.668 18.1881 11.425L18.1918 11.5755L18.0419 11.5821C16.7559 11.6382 15.777 12.0126 15.0509 12.5663C14.3242 13.1203 13.8425 13.8603 13.5619 14.6599C13.4837 14.8827 13.4212 15.1096 13.3735 15.3378L14.1812 19.1883L14.0599 19.2492ZM13.568 18.3604C13.389 17.8864 13.2786 17.3288 13.2564 16.7399L13.568 18.3604ZM13.5187 19.3806L12.7654 17.4905L12.8568 16.7567C12.2375 17.6325 11.3135 18.5546 10.1561 19.0797C9.38042 19.4316 8.49897 19.6054 7.53707 19.4651C6.57551 19.3248 5.54364 18.8721 4.46421 17.9868L4.3034 17.8549L14.9794 10.7696C14.2368 9.43309 12.8047 7.74722 10.8415 6.88046C8.83069 5.99263 6.24274 5.95478 3.22472 8.07825C2.35236 8.7592 1.23058 10.0931 0.714221 11.8727C0.199213 13.6477 0.283405 15.8753 1.836 18.3594L1.83641 18.3601C2.74586 19.8317 5.6811 22.5222 10.1179 21.4439C10.5548 21.3224 11.2976 21.0488 12.0141 20.6374C12.603 20.2991 13.159 19.8763 13.5187 19.3806ZM8.86496 8.64971C8.25299 8.53813 7.61774 8.54707 6.99553 8.67649C6.37331 8.8059 5.77659 9.05319 5.23962 9.40436C4.70264 9.75553 4.23623 10.2035 3.86696 10.7225C3.4977 11.2415 3.23298 11.8211 3.08752 12.428C2.94207 13.0349 2.91873 13.6572 3.01832 14.2593C3.10948 14.8104 3.30202 15.335 3.58616 15.8083L11.7449 10.4728C11.4282 10.0207 11.0277 9.63209 10.5622 9.32581C10.0535 8.99117 9.47691 8.76128 8.86496 8.64971ZM6.93347 8.37593C7.59336 8.23868 8.26824 8.22894 8.91963 8.34771C9.57104 8.46648 10.1862 8.71145 10.7299 9.0691C11.2735 9.42677 11.7347 9.88996 12.0869 10.4323L12.1703 10.5609L3.49464 16.2346L3.41115 16.106C3.05901 15.5636 2.82306 14.9531 2.71661 14.3096C2.61016 13.666 2.63533 13.0022 2.79016 12.3562C2.94498 11.7102 3.22643 11.0945 3.61806 10.5441C4.00968 9.99371 4.50396 9.5191 5.07264 9.1472C5.64133 8.7753 6.27359 8.51318 6.93347 8.37593ZM22.8828 8.47022L22.8972 8.471C23.3268 8.49418 23.9807 8.6373 24.5239 8.98053C25.0124 9.2893 25.4339 9.75954 25.5541 10.6528L25.5553 10.6618L25.6888 19.1459H17.4862L17.4707 19.1427C17.3666 19.1207 17.1109 19.0547 16.7889 18.8848C16.4016 18.6804 15.9879 18.3617 15.654 17.8792C15.5287 17.6981 15.4086 17.3315 15.363 16.891C15.3168 16.4443 15.3447 15.9004 15.5352 15.3575C15.7005 14.8864 15.9617 14.5088 16.3166 14.2382C16.6627 13.9742 17.2184 13.7197 18.1328 13.6798L20.3334 13.5838L20.2797 11.3738C20.2699 10.9734 20.3958 10.2488 20.8005 9.64189C21.1301 9.14739 21.7017 8.63034 22.8685 8.47216L22.8828 8.47022ZM22.8951 8.77832C21.8291 8.92636 21.3366 9.38959 21.0547 9.81258C20.6907 10.3585 20.577 11.0184 20.5854 11.3663L20.6465 13.8773L18.1461 13.9864C17.2862 14.024 16.7924 14.2609 16.5016 14.4826C16.2008 14.7119 15.972 15.0368 15.8237 15.4595C15.651 15.9515 15.6247 16.4485 15.6672 16.8593C15.7104 17.2763 15.822 17.5839 15.9052 17.7041C16.2069 18.1401 16.5804 18.428 16.9312 18.6131C17.2071 18.7587 17.4257 18.8182 17.5185 18.839H25.3781L25.2498 10.6849C25.1417 9.89889 24.7812 9.5059 24.3609 9.24027C23.8779 8.93501 23.2862 8.80184 22.8951 8.77832Z" fill="#070707"/>
</svg>
