<svg width="20" height="20" viewBox="0 0 20 20" fill="none" xmlns="http://www.w3.org/2000/svg">
<path d="M10 1.66663C7.92893 1.66663 6.25 3.34556 6.25 5.41663C6.25 7.48769 7.92893 9.16663 10 9.16663C12.0711 9.16663 13.75 7.48769 13.75 5.41663C13.75 3.34556 12.0711 1.66663 10 1.66663Z" fill="#8D8D8D"/>
<path d="M10.0012 10.4166C6.89973 10.4166 4.53077 12.2715 3.56703 14.8772C3.31168 15.5677 3.48526 16.246 3.89273 16.7316C4.29158 17.207 4.91098 17.5 5.58186 17.5H14.4205C15.0913 17.5 15.7107 17.207 16.1096 16.7316C16.5171 16.246 16.6907 15.5677 16.4353 14.8772C15.4716 12.2715 13.1026 10.4166 10.0012 10.4166Z" fill="#8D8D8D"/>
</svg>
