<svg width="20" height="20" viewBox="0 0 20 20" fill="none" xmlns="http://www.w3.org/2000/svg">
<path fill-rule="evenodd" clip-rule="evenodd" d="M3.95829 3.33582C2.69264 3.33582 1.66663 4.36183 1.66663 5.62748V7.50004H18.33V8.75004H1.66663V14.3718C1.66663 15.6375 2.69264 16.6635 3.95829 16.6635H16.0384C17.304 16.6635 18.33 15.6375 18.33 14.3718V7.53832C18.3301 6.89977 18.3302 6.26092 18.3297 5.62215C18.3287 4.35781 17.3027 3.33582 16.04 3.33582H3.95829ZM5.62496 10.4167C5.27978 10.4167 4.99996 10.6965 4.99996 11.0417C4.99996 11.3869 5.27978 11.6667 5.62496 11.6667H8.12496C8.47013 11.6667 8.74996 11.3869 8.74996 11.0417C8.74996 10.6965 8.47013 10.4167 8.12496 10.4167H5.62496Z" fill="#8D8D8D"/>
</svg>
