<svg width="20" height="20" viewBox="0 0 20 20" fill="none" xmlns="http://www.w3.org/2000/svg">
<path fill-rule="evenodd" clip-rule="evenodd" d="M16.2701 3.45687C16.6621 3.69807 16.7843 4.21137 16.5431 4.60332L14.7605 7.49991H15.8334C16.2936 7.49991 16.6667 7.87301 16.6667 8.33325V15.8332C16.6667 17.214 15.5475 18.3332 14.1667 18.3332H5.83337C4.45267 18.3332 3.33337 17.2139 3.33337 15.8332V8.33325C3.33337 7.87301 3.70647 7.49991 4.16671 7.49991H12.8036L15.1236 3.72983C15.3649 3.33787 15.8781 3.21566 16.2701 3.45687ZM8.33337 10.8332C7.87314 10.8332 7.50004 11.2063 7.50004 11.6666C7.50004 12.1268 7.87314 12.4999 8.33337 12.4999H11.6667C12.127 12.4999 12.5 12.1268 12.5 11.6666C12.5 11.2063 12.127 10.8332 11.6667 10.8332H8.33337Z" fill="#8D8D8D"/>
<path d="M5.48914 3.9517C5.5451 3.92373 5.59048 3.87835 5.61845 3.82239L5.99142 3.07647C6.09798 2.86334 6.40211 2.86334 6.50867 3.07647L6.88163 3.82239C6.90961 3.87835 6.95498 3.92373 7.01094 3.9517L7.75687 4.32467C7.96999 4.43123 7.96999 4.73536 7.75687 4.84192L7.01094 5.21489C6.95498 5.24286 6.90961 5.28824 6.88163 5.34419L6.50867 6.09012C6.40211 6.30324 6.09798 6.30324 5.99142 6.09012L5.61845 5.34419C5.59048 5.28824 5.5451 5.24286 5.48914 5.21489L4.74322 4.84192C4.53009 4.73536 4.53009 4.43123 4.74322 4.32467L5.48914 3.9517Z" fill="#8D8D8D"/>
<path d="M9.88215 2.54385C9.95215 2.50887 10.0088 2.45215 10.0438 2.38221L10.5101 1.4498C10.6432 1.1834 11.0234 1.1834 11.1566 1.4498L11.6228 2.38221C11.6578 2.45215 11.7145 2.50887 11.7845 2.54385L12.7168 3.01005C12.9832 3.14325 12.9832 3.52342 12.7168 3.65662L11.7845 4.12282C11.7145 4.15779 11.6578 4.21452 11.6228 4.28446L11.1566 5.21687C11.0234 5.48327 10.6432 5.48327 10.5101 5.21687L10.0438 4.28446C10.0088 4.21452 9.95215 4.15779 9.88215 4.12282L8.94981 3.65662C8.6834 3.52342 8.6834 3.14325 8.94981 3.01005L9.88215 2.54385Z" fill="#8D8D8D"/>
</svg>
