<svg width="28" height="28" viewBox="0 0 28 28" fill="none" xmlns="http://www.w3.org/2000/svg">
<path d="M20.4167 4.66663C23.3162 4.66663 25.6667 7.01713 25.6667 9.91663V21.2916C25.6667 22.4192 24.7526 23.3333 23.625 23.3333H16.3334V24.7916C16.3334 25.2749 15.9416 25.6666 15.4584 25.6666C14.9751 25.6666 14.5834 25.2749 14.5834 24.7916V9.91663C14.5834 7.82531 13.6653 5.94931 12.2113 4.66663H20.4167Z" fill="#B2B2B2"/>
<path fill-rule="evenodd" clip-rule="evenodd" d="M7.58337 4.66663C10.4829 4.66663 12.8334 7.01713 12.8334 9.91663V21.2916C12.8334 22.4192 11.9193 23.3333 10.7917 23.3333H4.37504C3.24746 23.3333 2.33337 22.4192 2.33337 21.2916V9.91663C2.33337 7.10769 4.53934 4.814 7.31335 4.67346L7.58337 4.66663ZM5.83337 10.5C5.35013 10.5 4.95837 10.8917 4.95837 11.375C4.95837 11.8582 5.35013 12.25 5.83337 12.25H9.33337C9.81662 12.25 10.2084 11.8582 10.2084 11.375C10.2084 10.8917 9.81662 10.5 9.33337 10.5H5.83337Z" fill="#B2B2B2"/>
</svg>
