<svg width="20" height="20" viewBox="0 0 20 20" fill="none" xmlns="http://www.w3.org/2000/svg">
<path fill-rule="evenodd" clip-rule="evenodd" d="M1.66663 9.99996C1.66663 5.39758 5.39758 1.66663 9.99996 1.66663C14.6023 1.66663 18.3333 5.39758 18.3333 9.99996C18.3333 14.6023 14.6023 18.3333 9.99996 18.3333C5.39758 18.3333 1.66663 14.6023 1.66663 9.99996ZM9.99996 4.58329C10.4602 4.58329 10.8333 4.95639 10.8333 5.41663V5.93635C11.5033 6.10588 12.0945 6.47877 12.4799 7.01167C12.7495 7.38462 12.6658 7.90558 12.2929 8.17525C11.92 8.44496 11.399 8.36121 11.1293 7.98825C10.9482 7.73787 10.5445 7.49996 9.99996 7.49996H9.76846C9.02279 7.49996 8.74996 7.95406 8.74996 8.14811V8.21171C8.74996 8.37613 8.87421 8.65213 9.29371 8.81996L11.3251 9.63254C12.2143 9.98813 12.9166 10.7821 12.9166 11.7882C12.9166 13.0157 11.9358 13.8453 10.8333 14.0909V14.5833C10.8333 15.0435 10.4602 15.4166 9.99996 15.4166C9.53971 15.4166 9.16663 15.0435 9.16663 14.5833V14.0635C8.49663 13.894 7.90538 13.5211 7.52005 12.9883C7.25038 12.6153 7.33409 12.0944 7.70705 11.8247C8.08 11.555 8.60096 11.6387 8.87063 12.0116C9.05171 12.262 9.45546 12.5 9.99996 12.5H10.152C10.9415 12.5 11.25 12.0174 11.25 11.7882C11.25 11.6238 11.1257 11.3478 10.7062 11.18L8.67479 10.3674C7.78565 10.0118 7.08329 9.21779 7.08329 8.21171V8.14811C7.08329 6.9281 8.07443 6.11583 9.16663 5.89438V5.41663C9.16663 4.95639 9.53971 4.58329 9.99996 4.58329Z" fill="#8D8D8D"/>
</svg>
