<svg width="20" height="20" viewBox="0 0 20 20" fill="none" xmlns="http://www.w3.org/2000/svg">
<path fill-rule="evenodd" clip-rule="evenodd" d="M15.0989 3.43575C14.4176 3.09709 13.5886 3.3794 13.2471 4.06628L10.9803 8.62657C10.8665 8.85552 10.5902 8.9496 10.3631 8.83673C10.136 8.72386 10.0442 8.44676 10.158 8.2178L12.0126 4.48666C12.3541 3.79977 12.0785 2.96839 11.3972 2.62974C10.7159 2.29109 9.88684 2.57338 9.5454 3.26027L7.07256 8.23509C6.98922 8.40277 6.81388 8.50415 6.62833 8.49196C6.44277 8.47975 6.28353 8.35639 6.22486 8.17936L5.84746 7.0405C5.58811 6.25793 4.70797 5.88008 3.96093 6.23063L3.42024 6.48431L3.41477 12.4633C3.41266 14.7769 4.71145 16.8846 6.76966 17.9076C9.77077 19.3994 13.4227 18.1559 14.9267 15.1302L16.5311 11.9026C16.5488 11.8669 16.5707 11.8344 16.5956 11.8054C16.6036 11.7682 16.6163 11.7312 16.6341 11.6954L18.2826 8.37881C18.6241 7.69193 18.3486 6.86057 17.6673 6.52191C16.986 6.18325 16.1569 6.46556 15.8155 7.15244L13.9608 10.8836C13.847 11.1125 13.5707 11.2067 13.3436 11.0938C13.1165 10.9809 13.0246 10.7037 13.1384 10.4748L15.7143 5.29265C16.0557 4.60576 15.7802 3.77441 15.0989 3.43575Z" fill="#8D8D8D"/>
</svg>
