<svg width="20" height="20" viewBox="0 0 20 20" fill="none" xmlns="http://www.w3.org/2000/svg">
<path d="M4.16703 3.33297C4.16703 2.87273 3.79393 2.49963 3.3337 2.49963C2.87347 2.49963 2.50037 2.87273 2.50037 3.33297L2.50037 16.6663C2.50037 17.1265 2.87347 17.4996 3.3337 17.4996C3.79393 17.4996 4.16703 17.1265 4.16703 16.6663L4.16703 3.33297Z" fill="#8D8D8D"/>
<path d="M7.91622 4.99963C6.76563 4.99963 5.83289 5.93238 5.83289 7.08297C5.83289 8.23356 6.76563 9.1663 7.91622 9.1663L15.4162 9.1663C16.5668 9.1663 17.4996 8.23356 17.4996 7.08297C17.4996 5.93238 16.5668 4.99963 15.4162 4.99963L7.91622 4.99963Z" fill="#8D8D8D"/>
<path d="M7.91622 10.8322C6.76563 10.8322 5.83289 11.7649 5.83289 12.9155C5.83289 14.0661 6.76563 14.9988 7.91622 14.9988L12.0829 14.9988C13.2335 14.9988 14.1662 14.0661 14.1662 12.9155C14.1662 11.7649 13.2335 10.8322 12.0829 10.8322L7.91622 10.8322Z" fill="#8D8D8D"/>
</svg>
