<svg width="20" height="20" viewBox="0 0 20 20" fill="none" xmlns="http://www.w3.org/2000/svg">
<path d="M17.7083 9.99996C17.7083 14.2571 14.2571 17.7083 9.99996 17.7083C5.74277 17.7083 2.29163 14.2571 2.29163 9.99996C2.29163 5.74277 5.74277 2.29163 9.99996 2.29163" stroke="#8D8D8D" stroke-width="1.5" stroke-linecap="round" stroke-linejoin="round"/>
<path d="M15.8333 1.45837V6.87504M13.125 4.16671H18.5417" stroke="#8D8D8D" stroke-width="1.5" stroke-linecap="round" stroke-linejoin="round"/>
<path d="M12.3572 12.3571C11.0555 13.6588 8.94496 13.6588 7.64319 12.3571" stroke="#8D8D8D" stroke-width="1.5" stroke-linecap="round" stroke-linejoin="round"/>
<path d="M12.0833 7.91667H12.5M12.7083 7.91667C12.7083 8.14678 12.5217 8.33333 12.2917 8.33333C12.0616 8.33333 11.875 8.14678 11.875 7.91667C11.875 7.68655 12.0616 7.5 12.2917 7.5C12.5217 7.5 12.7083 7.68655 12.7083 7.91667Z" stroke="#8D8D8D" stroke-width="1.5" stroke-linecap="round" stroke-linejoin="round"/>
<path d="M7.49996 7.91667H7.91663M8.12496 7.91667C8.12496 8.14678 7.93841 8.33333 7.70829 8.33333C7.47818 8.33333 7.29163 8.14678 7.29163 7.91667C7.29163 7.68655 7.47818 7.5 7.70829 7.5C7.93841 7.5 8.12496 7.68655 8.12496 7.91667Z" stroke="#8D8D8D" stroke-width="1.5" stroke-linecap="round" stroke-linejoin="round"/>
</svg>
