<svg width="20" height="20" viewBox="0 0 20 20" fill="none" xmlns="http://www.w3.org/2000/svg">
<path d="M7.91508 2.91663C6.30425 2.91663 4.99841 4.22246 4.99841 5.83329C4.99841 7.44413 6.30425 8.74996 7.91508 8.74996C9.52587 8.74996 10.8317 7.44413 10.8317 5.83329C10.8317 4.22246 9.52587 2.91663 7.91508 2.91663Z" fill="#8D8D8D"/>
<path d="M17.9784 12.1668C17.3875 10.6874 16.7649 9.53583 16.102 8.75241C15.4473 7.97852 14.6332 7.43106 13.6804 7.51001C12.0236 7.64726 10.9251 8.99858 10.1929 9.95825C10.087 10.097 9.98837 10.2285 9.89504 10.353C9.62621 10.7115 9.40137 11.0113 9.17487 11.2547C8.89304 11.5577 8.76421 11.5945 8.74862 11.599C8.63996 11.599 8.48562 11.5619 8.24718 11.4388C8.03018 11.3268 7.80869 11.18 7.5329 10.9972L7.42556 10.9262C6.83565 10.5362 5.98379 9.97633 4.94761 9.97633C4.23656 9.97633 3.65901 10.3403 3.2306 10.7555C2.80006 11.1727 2.44341 11.713 2.15447 12.246L2.08874 12.3669C1.71826 13.0469 1.3764 13.6745 1.47581 14.4752C1.5189 14.8222 1.65882 15.1605 1.8236 15.4372C1.98837 15.714 2.21911 15.9982 2.50366 16.2015C2.87427 16.4662 3.27296 16.5742 3.6883 16.6227C4.06919 16.6672 4.52754 16.6672 5.04576 16.6672H14.8293C15.3945 16.6672 15.8788 16.6672 16.272 16.6285C16.6855 16.5877 17.0949 16.4972 17.4664 16.2511C17.9963 15.8999 18.4034 15.299 18.5329 14.6767C18.6217 14.2501 18.5641 13.853 18.4549 13.4657C18.3532 13.105 18.1855 12.6854 17.9935 12.2047L17.9784 12.1668Z" fill="#8D8D8D"/>
</svg>
