<svg width="20" height="20" viewBox="0 0 20 20" fill="none" xmlns="http://www.w3.org/2000/svg">
<path fill-rule="evenodd" clip-rule="evenodd" d="M12.5 12.4269L9.99996 14.5519V16.028L12.0954 14.7707C12.3464 14.6202 12.5 14.3489 12.5 14.0562V12.4269ZM8.33329 14.5117L5.48812 11.6665H3.97178C2.67629 11.6665 1.87611 10.2532 2.54263 9.14233L3.79988 7.04695C4.25168 6.29394 5.06545 5.83319 5.94361 5.83319H9.01221C11.116 3.60805 13.5005 1.97393 16.5951 1.7053C17.5694 1.62072 18.3791 2.43041 18.2945 3.40466C18.0259 6.49924 16.3918 8.88383 14.1666 10.9877V14.0562C14.1666 14.9343 13.7059 15.7482 12.9529 16.1999L10.8575 17.4572C9.74654 18.1237 8.33329 17.3235 8.33329 16.028V14.5117ZM7.57293 7.49986H5.94361C5.65089 7.49986 5.37963 7.65344 5.22903 7.90445L3.97178 9.99983H5.44793L7.57293 7.49986ZM1.66663 15.8332C1.66663 14.4525 2.78592 13.3332 4.16663 13.3332C5.54733 13.3332 6.66663 14.4525 6.66663 15.8332C6.66663 17.2139 5.54733 18.3332 4.16663 18.3332H2.49996C2.03973 18.3332 1.66663 17.9601 1.66663 17.4998V15.8332Z" fill="#8D8D8D"/>
</svg>
