<svg width="20" height="20" viewBox="0 0 20 20" fill="none" xmlns="http://www.w3.org/2000/svg">
<path fill-rule="evenodd" clip-rule="evenodd" d="M6.02437 4.16667H2.91671C2.45647 4.16667 2.08337 4.53977 2.08337 5C2.08337 5.46023 2.45647 5.83333 2.91671 5.83333H3.36013L4.11517 16.7813C4.17543 17.6553 4.90191 18.3333 5.77788 18.3333H14.2222C15.0982 18.3333 15.8246 17.6553 15.885 16.7813L16.64 5.83333H17.0834C17.5436 5.83333 17.9167 5.46023 17.9167 5C17.9167 4.53977 17.5436 4.16667 17.0834 4.16667H13.9757C13.4446 2.47621 11.8663 1.25 10 1.25C8.13382 1.25 6.5555 2.47621 6.02437 4.16667ZM7.83425 4.16667H12.1659C11.7335 3.41941 10.925 2.91667 10 2.91667C9.07512 2.91667 8.26662 3.41941 7.83425 4.16667ZM8.33337 8.33333C8.79362 8.33333 9.16671 8.70642 9.16671 9.16667V13.3333C9.16671 13.7936 8.79362 14.1667 8.33337 14.1667C7.87314 14.1667 7.50004 13.7936 7.50004 13.3333V9.16667C7.50004 8.70642 7.87314 8.33333 8.33337 8.33333ZM11.6667 8.33333C12.127 8.33333 12.5 8.70642 12.5 9.16667V13.3333C12.5 13.7936 12.127 14.1667 11.6667 14.1667C11.2065 14.1667 10.8334 13.7936 10.8334 13.3333V9.16667C10.8334 8.70642 11.2065 8.33333 11.6667 8.33333Z" fill="#8D8D8D"/>
</svg>
