<svg width="20" height="20" viewBox="0 0 20 20" fill="none" xmlns="http://www.w3.org/2000/svg">
<path d="M7.08337 3.125C7.08337 2.77983 6.80355 2.5 6.45837 2.5C6.1132 2.5 5.83337 2.77983 5.83337 3.125V16.875C5.83337 17.2202 6.1132 17.5 6.45837 17.5C6.80355 17.5 7.08337 17.2202 7.08337 16.875V3.125Z" fill="#8D8D8D"/>
<path d="M14.1666 4.79163C14.1666 4.44645 13.8868 4.16663 13.5416 4.16663C13.1965 4.16663 12.9166 4.44645 12.9166 4.79163V15.2083C12.9166 15.5535 13.1965 15.8333 13.5416 15.8333C13.8868 15.8333 14.1666 15.5535 14.1666 15.2083V4.79163Z" fill="#8D8D8D"/>
<path d="M10.625 6.45837C10.625 6.1132 10.3452 5.83337 10 5.83337C9.65483 5.83337 9.375 6.1132 9.375 6.45837V13.5417C9.375 13.8869 9.65483 14.1667 10 14.1667C10.3452 14.1667 10.625 13.8869 10.625 13.5417V6.45837Z" fill="#8D8D8D"/>
<path d="M3.75 8.125C3.75 7.77983 3.47017 7.5 3.125 7.5C2.77983 7.5 2.5 7.77983 2.5 8.125V11.875C2.5 12.2202 2.77983 12.5 3.125 12.5C3.47017 12.5 3.75 12.2202 3.75 11.875V8.125Z" fill="#8D8D8D"/>
<path d="M17.5 8.125C17.5 7.77983 17.2202 7.5 16.875 7.5C16.5298 7.5 16.25 7.77983 16.25 8.125V11.875C16.25 12.2202 16.5298 12.5 16.875 12.5C17.2202 12.5 17.5 12.2202 17.5 11.875V8.125Z" fill="#8D8D8D"/>
</svg>
