<svg width="20" height="20" viewBox="0 0 20 20" fill="none" xmlns="http://www.w3.org/2000/svg">
<path d="M9.99996 1.66663C9.19454 1.66663 8.54163 2.31954 8.54163 3.12496C8.54163 3.93038 9.19454 4.58329 9.99996 4.58329C10.8054 4.58329 11.4583 3.93038 11.4583 3.12496C11.4583 2.31954 10.8054 1.66663 9.99996 1.66663Z" fill="#8D8D8D"/>
<path d="M9.99996 8.54163C9.19454 8.54163 8.54163 9.19454 8.54163 9.99996C8.54163 10.8054 9.19454 11.4583 9.99996 11.4583C10.8054 11.4583 11.4583 10.8054 11.4583 9.99996C11.4583 9.19454 10.8054 8.54163 9.99996 8.54163Z" fill="#8D8D8D"/>
<path d="M9.99996 15.4166C9.19454 15.4166 8.54163 16.0695 8.54163 16.875C8.54163 17.6804 9.19454 18.3333 9.99996 18.3333C10.8054 18.3333 11.4583 17.6804 11.4583 16.875C11.4583 16.0695 10.8054 15.4166 9.99996 15.4166Z" fill="#8D8D8D"/>
</svg>
