<svg width="20" height="20" viewBox="0 0 20 20" fill="none" xmlns="http://www.w3.org/2000/svg">
<mask id="mask0_23049_26707" style="mask-type:alpha" maskUnits="userSpaceOnUse" x="0" y="0" width="20" height="20">
<rect width="20" height="20" fill="#D9D9D9"/>
</mask>
<g mask="url(#mask0_23049_26707)">
<path d="M10 18.3333C9.54171 18.3333 9.14935 18.1701 8.82296 17.8437C8.49657 17.5173 8.33337 17.125 8.33337 16.6666H11.6667C11.6667 17.125 11.5035 17.5173 11.1771 17.8437C10.8507 18.1701 10.4584 18.3333 10 18.3333ZM3.33337 15.8333V14.1666H5.00004V8.33329C5.00004 7.18051 5.34726 6.15621 6.04171 5.26038C6.73615 4.36454 7.63893 3.77774 8.75004 3.49996V2.91663C8.75004 2.5694 8.87157 2.27426 9.11462 2.03121C9.35768 1.78815 9.65282 1.66663 10 1.66663C10.3473 1.66663 10.6424 1.78815 10.8855 2.03121C11.1285 2.27426 11.25 2.5694 11.25 2.91663V3.18746C11.0973 3.49301 10.9862 3.80551 10.9167 4.12496C10.8473 4.4444 10.8195 4.77079 10.8334 5.10413C10.6945 5.07635 10.5591 5.05204 10.4271 5.03121C10.2952 5.01038 10.1528 4.99996 10 4.99996C9.08337 4.99996 8.29865 5.32635 7.64587 5.97913C6.9931 6.6319 6.66671 7.41663 6.66671 8.33329V14.1666H13.3334V8.81246C13.5834 8.92357 13.8507 9.01038 14.1355 9.07288C14.4202 9.13538 14.7084 9.16663 15 9.16663V14.1666H16.6667V15.8333H3.33337ZM15 7.49996C14.3056 7.49996 13.7153 7.2569 13.2292 6.77079C12.7431 6.28468 12.5 5.6944 12.5 4.99996C12.5 4.30551 12.7431 3.71524 13.2292 3.22913C13.7153 2.74301 14.3056 2.49996 15 2.49996C15.6945 2.49996 16.2848 2.74301 16.7709 3.22913C17.257 3.71524 17.5 4.30551 17.5 4.99996C17.5 5.6944 17.257 6.28468 16.7709 6.77079C16.2848 7.2569 15.6945 7.49996 15 7.49996Z" fill="#8D8D8D"/>
</g>
</svg>
