<svg width="78" height="18" viewBox="0 0 78 18" fill="none" xmlns="http://www.w3.org/2000/svg">
<path d="M0 9C0 8.44772 0.447715 8 1 8C1.55228 8 2 8.44772 2 9C2 9.55228 1.55228 10 1 10C0.447715 10 0 9.55228 0 9Z" fill="url(#paint0_linear_23049_26464)"/>
<path d="M4 9C4 8.44772 4.44772 8 5 8C5.55228 8 6 8.44772 6 9C6 9.55228 5.55228 10 5 10C4.44772 10 4 9.55228 4 9Z" fill="url(#paint1_linear_23049_26464)"/>
<path d="M8 9C8 8.44772 8.44772 8 9 8C9.55228 8 10 8.44772 10 9C10 9.55228 9.55228 10 9 10C8.44772 10 8 9.55228 8 9Z" fill="url(#paint2_linear_23049_26464)"/>
<path d="M12 1C12 0.447716 12.4477 0 13 0C13.5523 0 14 0.447715 14 1V17C14 17.5523 13.5523 18 13 18C12.4477 18 12 17.5523 12 17V1Z" fill="url(#paint3_linear_23049_26464)"/>
<path d="M16 4C16 3.44772 16.4477 3 17 3C17.5523 3 18 3.44772 18 4V14C18 14.5523 17.5523 15 17 15C16.4477 15 16 14.5523 16 14V4Z" fill="url(#paint4_linear_23049_26464)"/>
<path d="M20 1C20 0.447716 20.4477 0 21 0C21.5523 0 22 0.447715 22 1V17C22 17.5523 21.5523 18 21 18C20.4477 18 20 17.5523 20 17V1Z" fill="url(#paint5_linear_23049_26464)"/>
<path d="M24 1C24 0.447716 24.4477 0 25 0C25.5523 0 26 0.447715 26 1V17C26 17.5523 25.5523 18 25 18C24.4477 18 24 17.5523 24 17V1Z" fill="url(#paint6_linear_23049_26464)"/>
<path d="M28 1C28 0.447716 28.4477 0 29 0C29.5523 0 30 0.447715 30 1V17C30 17.5523 29.5523 18 29 18C28.4477 18 28 17.5523 28 17V1Z" fill="url(#paint7_linear_23049_26464)"/>
<path d="M32 2.5C32 1.94772 32.4477 1.5 33 1.5C33.5523 1.5 34 1.94772 34 2.5V15.5C34 16.0523 33.5523 16.5 33 16.5C32.4477 16.5 32 16.0523 32 15.5V2.5Z" fill="url(#paint8_linear_23049_26464)"/>
<path d="M36 4C36 3.44772 36.4477 3 37 3C37.5523 3 38 3.44772 38 4V14C38 14.5523 37.5523 15 37 15C36.4477 15 36 14.5523 36 14V4Z" fill="url(#paint9_linear_23049_26464)"/>
<path d="M40 5.5C40 4.94772 40.4477 4.5 41 4.5C41.5523 4.5 42 4.94772 42 5.5V12.5C42 13.0523 41.5523 13.5 41 13.5C40.4477 13.5 40 13.0523 40 12.5V5.5Z" fill="url(#paint10_linear_23049_26464)"/>
<path d="M44 1C44 0.447716 44.4477 0 45 0C45.5523 0 46 0.447715 46 1V17C46 17.5523 45.5523 18 45 18C44.4477 18 44 17.5523 44 17V1Z" fill="url(#paint11_linear_23049_26464)"/>
<path d="M48 1C48 0.447716 48.4477 0 49 0C49.5523 0 50 0.447715 50 1V17C50 17.5523 49.5523 18 49 18C48.4477 18 48 17.5523 48 17V1Z" fill="url(#paint12_linear_23049_26464)"/>
<path d="M52 2.5C52 1.94772 52.4477 1.5 53 1.5C53.5523 1.5 54 1.94772 54 2.5V15.5C54 16.0523 53.5523 16.5 53 16.5C52.4477 16.5 52 16.0523 52 15.5V2.5Z" fill="url(#paint13_linear_23049_26464)"/>
<path d="M56 1C56 0.447716 56.4477 0 57 0C57.5523 0 58 0.447715 58 1V17C58 17.5523 57.5523 18 57 18C56.4477 18 56 17.5523 56 17V1Z" fill="url(#paint14_linear_23049_26464)"/>
<path d="M60 4C60 3.44772 60.4477 3 61 3C61.5523 3 62 3.44772 62 4V14C62 14.5523 61.5523 15 61 15C60.4477 15 60 14.5523 60 14V4Z" fill="url(#paint15_linear_23049_26464)"/>
<path d="M64 1C64 0.447716 64.4477 0 65 0C65.5523 0 66 0.447715 66 1V17C66 17.5523 65.5523 18 65 18C64.4477 18 64 17.5523 64 17V1Z" fill="url(#paint16_linear_23049_26464)"/>
<path d="M68 5.5C68 4.94772 68.4477 4.5 69 4.5C69.5523 4.5 70 4.94772 70 5.5V12.5C70 13.0523 69.5523 13.5 69 13.5C68.4477 13.5 68 13.0523 68 12.5V5.5Z" fill="url(#paint17_linear_23049_26464)"/>
<path d="M72 1C72 0.447716 72.4477 0 73 0C73.5523 0 74 0.447715 74 1V17C74 17.5523 73.5523 18 73 18C72.4477 18 72 17.5523 72 17V1Z" fill="url(#paint18_linear_23049_26464)"/>
<path d="M76 1C76 0.447716 76.4477 0 77 0C77.5523 0 78 0.447715 78 1V17C78 17.5523 77.5523 18 77 18C76.4477 18 76 17.5523 76 17V1Z" fill="url(#paint19_linear_23049_26464)"/>
<defs>
<linearGradient id="paint0_linear_23049_26464" x1="37.4911" y1="-19.125" x2="56.5251" y2="28.041" gradientUnits="userSpaceOnUse">
<stop offset="0.08" stop-color="#FC4EB7"/>
<stop offset="0.95" stop-color="#5C59ED"/>
</linearGradient>
<linearGradient id="paint1_linear_23049_26464" x1="37.4911" y1="-19.125" x2="56.5251" y2="28.041" gradientUnits="userSpaceOnUse">
<stop offset="0.08" stop-color="#FC4EB7"/>
<stop offset="0.95" stop-color="#5C59ED"/>
</linearGradient>
<linearGradient id="paint2_linear_23049_26464" x1="37.4911" y1="-19.125" x2="56.5251" y2="28.041" gradientUnits="userSpaceOnUse">
<stop offset="0.08" stop-color="#FC4EB7"/>
<stop offset="0.95" stop-color="#5C59ED"/>
</linearGradient>
<linearGradient id="paint3_linear_23049_26464" x1="37.4911" y1="-19.125" x2="56.5251" y2="28.041" gradientUnits="userSpaceOnUse">
<stop offset="0.08" stop-color="#FC4EB7"/>
<stop offset="0.95" stop-color="#5C59ED"/>
</linearGradient>
<linearGradient id="paint4_linear_23049_26464" x1="37.4911" y1="-19.125" x2="56.5251" y2="28.041" gradientUnits="userSpaceOnUse">
<stop offset="0.08" stop-color="#FC4EB7"/>
<stop offset="0.95" stop-color="#5C59ED"/>
</linearGradient>
<linearGradient id="paint5_linear_23049_26464" x1="37.4911" y1="-19.125" x2="56.5251" y2="28.041" gradientUnits="userSpaceOnUse">
<stop offset="0.08" stop-color="#FC4EB7"/>
<stop offset="0.95" stop-color="#5C59ED"/>
</linearGradient>
<linearGradient id="paint6_linear_23049_26464" x1="37.4911" y1="-19.125" x2="56.5251" y2="28.041" gradientUnits="userSpaceOnUse">
<stop offset="0.08" stop-color="#FC4EB7"/>
<stop offset="0.95" stop-color="#5C59ED"/>
</linearGradient>
<linearGradient id="paint7_linear_23049_26464" x1="37.4911" y1="-19.125" x2="56.5251" y2="28.041" gradientUnits="userSpaceOnUse">
<stop offset="0.08" stop-color="#FC4EB7"/>
<stop offset="0.95" stop-color="#5C59ED"/>
</linearGradient>
<linearGradient id="paint8_linear_23049_26464" x1="37.4911" y1="-19.125" x2="56.5251" y2="28.041" gradientUnits="userSpaceOnUse">
<stop offset="0.08" stop-color="#FC4EB7"/>
<stop offset="0.95" stop-color="#5C59ED"/>
</linearGradient>
<linearGradient id="paint9_linear_23049_26464" x1="37.4911" y1="-19.125" x2="56.5251" y2="28.041" gradientUnits="userSpaceOnUse">
<stop offset="0.08" stop-color="#FC4EB7"/>
<stop offset="0.95" stop-color="#5C59ED"/>
</linearGradient>
<linearGradient id="paint10_linear_23049_26464" x1="37.4911" y1="-19.125" x2="56.5251" y2="28.041" gradientUnits="userSpaceOnUse">
<stop offset="0.08" stop-color="#FC4EB7"/>
<stop offset="0.95" stop-color="#5C59ED"/>
</linearGradient>
<linearGradient id="paint11_linear_23049_26464" x1="37.4911" y1="-19.125" x2="56.5251" y2="28.041" gradientUnits="userSpaceOnUse">
<stop offset="0.08" stop-color="#FC4EB7"/>
<stop offset="0.95" stop-color="#5C59ED"/>
</linearGradient>
<linearGradient id="paint12_linear_23049_26464" x1="37.4911" y1="-19.125" x2="56.5251" y2="28.041" gradientUnits="userSpaceOnUse">
<stop offset="0.08" stop-color="#FC4EB7"/>
<stop offset="0.95" stop-color="#5C59ED"/>
</linearGradient>
<linearGradient id="paint13_linear_23049_26464" x1="37.4911" y1="-19.125" x2="56.5251" y2="28.041" gradientUnits="userSpaceOnUse">
<stop offset="0.08" stop-color="#FC4EB7"/>
<stop offset="0.95" stop-color="#5C59ED"/>
</linearGradient>
<linearGradient id="paint14_linear_23049_26464" x1="37.4911" y1="-19.125" x2="56.5251" y2="28.041" gradientUnits="userSpaceOnUse">
<stop offset="0.08" stop-color="#FC4EB7"/>
<stop offset="0.95" stop-color="#5C59ED"/>
</linearGradient>
<linearGradient id="paint15_linear_23049_26464" x1="37.4911" y1="-19.125" x2="56.5251" y2="28.041" gradientUnits="userSpaceOnUse">
<stop offset="0.08" stop-color="#FC4EB7"/>
<stop offset="0.95" stop-color="#5C59ED"/>
</linearGradient>
<linearGradient id="paint16_linear_23049_26464" x1="37.4911" y1="-19.125" x2="56.5251" y2="28.041" gradientUnits="userSpaceOnUse">
<stop offset="0.08" stop-color="#FC4EB7"/>
<stop offset="0.95" stop-color="#5C59ED"/>
</linearGradient>
<linearGradient id="paint17_linear_23049_26464" x1="37.4911" y1="-19.125" x2="56.5251" y2="28.041" gradientUnits="userSpaceOnUse">
<stop offset="0.08" stop-color="#FC4EB7"/>
<stop offset="0.95" stop-color="#5C59ED"/>
</linearGradient>
<linearGradient id="paint18_linear_23049_26464" x1="37.4911" y1="-19.125" x2="56.5251" y2="28.041" gradientUnits="userSpaceOnUse">
<stop offset="0.08" stop-color="#FC4EB7"/>
<stop offset="0.95" stop-color="#5C59ED"/>
</linearGradient>
<linearGradient id="paint19_linear_23049_26464" x1="37.4911" y1="-19.125" x2="56.5251" y2="28.041" gradientUnits="userSpaceOnUse">
<stop offset="0.08" stop-color="#FC4EB7"/>
<stop offset="0.95" stop-color="#5C59ED"/>
</linearGradient>
</defs>
</svg>
