<svg width="24" height="24" viewBox="0 0 24 24" fill="none" xmlns="http://www.w3.org/2000/svg">
<path d="M8 11C9.65685 11 11 9.65685 11 8V6C11 4.34315 9.65685 3 8 3H6C4.34315 3 3 4.34315 3 6V8C3 9.65685 4.34315 11 6 11H8Z" fill="#070707"/>
<path d="M17.3691 17.7754C17.7619 18.0957 18.3409 18.0731 18.707 17.707L22.207 14.207C22.5976 13.8165 22.5976 13.1835 22.207 12.793C21.8165 12.4024 21.1834 12.4024 20.7929 12.793L18.9999 14.5859V7C18.9999 6.44772 18.5522 6 17.9999 6C17.4476 6 16.9999 6.44772 16.9999 7V14.5859L15.2069 12.793C14.8164 12.4024 14.1835 12.4024 13.793 12.793C13.4024 13.1835 13.4024 13.8165 13.793 14.207L17.2929 17.707L17.3691 17.7754Z" fill="#070707"/>
<path d="M8 21C9.65685 21 11 19.6569 11 18V16C11 14.3431 9.65685 13 8 13H6C4.34315 13 3 14.3431 3 16V18C3 19.6569 4.34315 21 6 21H8Z" fill="#070707"/>
</svg>
