<svg width="20" height="20" viewBox="0 0 20 20" fill="none" xmlns="http://www.w3.org/2000/svg">
<path d="M4.16667 2.5C3.24619 2.5 2.5 3.24619 2.5 4.16667V5C2.5 11.9036 8.09644 17.5 15 17.5H15.8333C16.7538 17.5 17.5 16.7538 17.5 15.8333V13.015C17.5 12.3837 17.1433 11.8067 16.5787 11.5243L14.2432 10.3566C13.6016 10.0357 12.8267 10.1615 12.3193 10.6687L11.8947 11.0935C10.483 10.4287 9.57133 9.517 8.9065 8.1053L9.33125 7.68063C9.8385 7.17337 9.96425 6.39842 9.64342 5.75677L8.47567 3.42131C8.19337 2.85667 7.61626 2.5 6.98498 2.5H4.16667Z" fill="#8D8D8D"/>
</svg>
