<svg width="28" height="28" viewBox="0 0 28 28" fill="none" xmlns="http://www.w3.org/2000/svg">
<path d="M15.8142 3.97431C14.7209 3.22471 13.2791 3.22471 12.1858 3.97431L4.89412 8.97351C4.02156 9.57175 3.5 10.5617 3.5 11.6196V21.2914C3.5 23.0633 4.93642 24.4997 6.70833 24.4997H10.2083C10.6916 24.4997 11.0833 24.108 11.0833 23.6247V19.5414C11.0833 17.9306 12.3892 16.6247 14 16.6247C15.6108 16.6247 16.9167 17.9306 16.9167 19.5414V23.6247C16.9167 24.108 17.3084 24.4997 17.7917 24.4997H21.2917C23.0636 24.4997 24.5 23.0633 24.5 21.2914V11.6196C24.5 10.5617 23.9785 9.57175 23.1058 8.97351L15.8142 3.97431Z" fill="#070707"/>
</svg>
