<svg width="20" height="20" viewBox="0 0 20 20" fill="none" xmlns="http://www.w3.org/2000/svg">
<path d="M3.78879 13.4378C5.3787 13.4573 6.70806 14.6779 6.87228 16.2643C6.04085 16.7825 4.25246 17.2403 3.16392 17.4858C2.75012 17.579 2.40032 17.2003 2.52593 16.7966C2.81657 15.8628 3.30739 14.392 3.78879 13.4378Z" fill="#8D8D8D"/>
<path d="M17.174 5.89539C17.697 5.03685 17.591 3.89672 16.8559 3.15237C16.1136 2.4009 14.9731 2.29865 14.1226 2.84561C14.8185 4.13915 15.8797 5.19999 17.174 5.89539Z" fill="#8D8D8D"/>
<path d="M12.7256 4.17744L5.177 11.77C6.66178 12.2128 7.8654 13.3286 8.42503 14.773L15.8596 7.30312C14.5802 6.52654 13.5053 5.4544 12.7256 4.17744Z" fill="#8D8D8D"/>
</svg>
