<svg width="20" height="20" viewBox="0 0 20 20" fill="none" xmlns="http://www.w3.org/2000/svg">
<path d="M2.67528 8.36191C2.57906 7.44651 3.24317 6.62641 4.1586 6.5302L9.13125 6.00756C10.0467 5.91134 10.8667 6.57545 10.963 7.49088L11.8368 15.8052C11.9331 16.7206 11.2689 17.5407 10.3535 17.6369L5.3809 18.1596C4.46546 18.2558 3.64536 17.5917 3.54915 16.6762L2.67528 8.36191Z" fill="#8D8D8D"/>
<path d="M10.9639 1.84027L15.937 2.36354C16.8523 2.45984 17.5168 3.28004 17.4205 4.19542L16.5465 12.5093C16.4503 13.4246 15.63 14.0889 14.7146 13.9928L13.052 13.8178L12.3717 7.34239C12.1941 5.65416 10.6857 4.42773 8.99854 4.59662L9.13279 3.32384C9.22904 2.40863 10.0486 1.74432 10.9639 1.84027Z" fill="#8D8D8D"/>
</svg>
