<svg width="20" height="20" viewBox="0 0 20 20" fill="none" xmlns="http://www.w3.org/2000/svg">
<path fill-rule="evenodd" clip-rule="evenodd" d="M5.20639 3.16299C5.6682 2.73671 6.27362 2.5 6.90209 2.5H13.0988C13.7273 2.5 14.3327 2.73671 14.7945 3.16299L18.4577 6.54441C19.501 7.5075 19.5338 9.14517 18.5298 10.1492L11.7682 16.9108C10.7919 17.8871 9.20896 17.8871 8.23269 16.9108L1.47113 10.1492C0.467104 9.14517 0.499841 7.5075 1.54319 6.54441L5.20639 3.16299ZM8.50638 7.25593C8.83179 6.93048 8.83179 6.40285 8.50638 6.07741C8.18095 5.75198 7.65332 5.75198 7.32788 6.07741L5.66121 7.74408C5.33578 8.06952 5.33578 8.59717 5.66121 8.92258L7.32788 10.5893C7.65332 10.9147 8.18095 10.9147 8.50638 10.5893C8.83179 10.2638 8.83179 9.73617 8.50638 9.41075L7.42898 8.33333L8.50638 7.25593Z" fill="#8D8D8D"/>
</svg>
