<svg width="20" height="20" viewBox="0 0 20 20" fill="none" xmlns="http://www.w3.org/2000/svg">
<path fill-rule="evenodd" clip-rule="evenodd" d="M6.90182 3.52047C7.32684 2.88294 8.04238 2.5 8.80863 2.5H11.1913C11.9575 2.5 12.673 2.88294 13.0981 3.52047L13.7752 4.53615C13.9684 4.82593 14.2936 5 14.642 5H16.0416C17.3073 5 18.3333 6.02602 18.3333 7.29167V15.2083C18.3333 16.474 17.3073 17.5 16.0416 17.5H3.95829C2.69264 17.5 1.66663 16.474 1.66663 15.2083V7.29167C1.66663 6.02602 2.69264 5 3.95829 5H5.35798C5.70627 5 6.03151 4.82593 6.22471 4.53615L6.90182 3.52047ZM9.99996 7.5C8.38913 7.5 7.08329 8.80583 7.08329 10.4167C7.08329 12.0275 8.38913 13.3333 9.99996 13.3333C11.6108 13.3333 12.9166 12.0275 12.9166 10.4167C12.9166 8.80583 11.6108 7.5 9.99996 7.5Z" fill="#8D8D8D"/>
</svg>
