<svg width="20" height="20" viewBox="0 0 20 20" fill="none" xmlns="http://www.w3.org/2000/svg">
<path fill-rule="evenodd" clip-rule="evenodd" d="M10.8333 3.33333C10.8333 2.8731 11.2064 2.5 11.6667 2.5H16.6667C17.1269 2.5 17.5 2.8731 17.5 3.33333V8.33333C17.5 8.79358 17.1269 9.16667 16.6667 9.16667C16.2064 9.16667 15.8333 8.79358 15.8333 8.33333V5.34517L12.2559 8.92258C11.9305 9.248 11.4028 9.248 11.0774 8.92258C10.752 8.59717 10.752 8.06952 11.0774 7.74407L14.6548 4.16667H11.6667C11.2064 4.16667 10.8333 3.79357 10.8333 3.33333ZM3.33333 10.8333C3.79357 10.8333 4.16667 11.2064 4.16667 11.6667V14.6548L7.74407 11.0774C8.06952 10.752 8.59717 10.752 8.92258 11.0774C9.248 11.4028 9.248 11.9305 8.92258 12.2559L5.34517 15.8333H8.33333C8.79358 15.8333 9.16667 16.2064 9.16667 16.6667C9.16667 17.1269 8.79358 17.5 8.33333 17.5H3.33333C2.8731 17.5 2.5 17.1269 2.5 16.6667V11.6667C2.5 11.2064 2.8731 10.8333 3.33333 10.8333Z" fill="#8D8D8D"/>
</svg>
