<svg width="20" height="20" viewBox="0 0 20 20" fill="none" xmlns="http://www.w3.org/2000/svg">
<path d="M3.48622 6.17341C3.56686 6.13309 3.63224 6.06771 3.67256 5.98708L4.20999 4.91221C4.36354 4.60511 4.8018 4.60511 4.95535 4.91221L5.49277 5.98708C5.5331 6.06771 5.59848 6.13309 5.67911 6.17341L6.75398 6.71084C7.06108 6.86439 7.06108 7.30265 6.75398 7.4562L5.67911 7.99364C5.59848 8.03395 5.5331 8.09934 5.49277 8.17997L4.95535 9.25479C4.80179 9.56196 4.36354 9.56196 4.20999 9.25479L3.67256 8.17997C3.63224 8.09934 3.56686 8.03395 3.48622 7.99364L2.41136 7.4562C2.10426 7.30265 2.10426 6.86439 2.41136 6.71084L3.48622 6.17341Z" fill="#8D8D8D"/>
<path d="M7.96609 3.10004C8.02369 3.07124 8.07039 3.02455 8.09919 2.96694L8.48306 2.19919C8.59272 1.97983 8.90581 1.97983 9.01547 2.19919L9.39931 2.96694C9.42814 3.02455 9.47489 3.07124 9.53247 3.10004L10.3002 3.48393C10.5196 3.5936 10.5196 3.90665 10.3002 4.01632L9.53247 4.4002C9.47489 4.429 9.42814 4.4757 9.39931 4.5333L9.01547 5.30106C8.90581 5.52042 8.59272 5.52042 8.48306 5.30106L8.09919 4.5333C8.07039 4.4757 8.02369 4.429 7.96609 4.4002L7.19833 4.01632C6.97897 3.90665 6.97897 3.5936 7.19833 3.48393L7.96609 3.10004Z" fill="#8D8D8D"/>
<path d="M17.0776 1.77555C17.4778 2.00291 17.6179 2.51161 17.3905 2.91177L13.5084 9.74446L13.7276 9.82421C14.9948 10.2855 16.0081 11.5425 15.7974 13.044C15.5174 15.0383 14.6656 16.4776 13.0936 18.0831C12.8543 18.3275 12.49 18.4009 12.1748 18.2681L7.47166 16.2876C7.38289 16.2502 7.3442 16.1456 7.38726 16.0595L8.10999 14.614C8.18163 14.4707 8.02961 14.3187 7.88636 14.3904L5.70619 15.481C5.66266 15.5027 5.6118 15.5044 5.56695 15.4855L4.25919 14.9348C3.97647 14.8157 3.78202 14.551 3.75301 14.2455C3.724 13.9402 3.86512 13.6435 4.12036 13.4734C5.33477 12.6638 6.30575 11.871 7.03516 10.7236C7.91557 9.33863 9.66372 8.34513 11.4359 8.99013L11.92 9.16629L15.9414 2.08844C16.1687 1.68828 16.6775 1.54819 17.0776 1.77555Z" fill="#8D8D8D"/>
</svg>
