<svg width="20" height="20" viewBox="0 0 20 20" fill="none" xmlns="http://www.w3.org/2000/svg">
<path fill-rule="evenodd" clip-rule="evenodd" d="M1.66663 9.99996C1.66663 5.39758 5.39758 1.66663 9.99996 1.66663C14.6023 1.66663 18.3333 5.39758 18.3333 9.99996C18.3333 14.6023 14.6023 18.3333 9.99996 18.3333C5.39758 18.3333 1.66663 14.6023 1.66663 9.99996ZM13.3333 10.8332C13.7935 10.8332 14.1666 10.4601 14.1666 9.99988C14.1666 9.53963 13.7935 9.16654 13.3333 9.16654L10.8333 9.16663V6.66673C10.8333 6.20649 10.4602 5.83339 9.99996 5.83339C9.53971 5.83339 9.16663 6.20649 9.16663 6.66673V9.16663L6.6666 9.16671C6.20637 9.16671 5.83328 9.53988 5.83329 10C5.83331 10.4603 6.20641 10.8334 6.66665 10.8334L9.16663 10.8333V13.3333C9.16663 13.7935 9.53971 14.1666 9.99996 14.1666C10.4602 14.1666 10.8333 13.7935 10.8333 13.3333V10.8333L13.3333 10.8332Z" fill="#8D8D8D"/>
</svg>
