<svg width="20" height="20" viewBox="0 0 20 20" fill="none" xmlns="http://www.w3.org/2000/svg">
<path fill-rule="evenodd" clip-rule="evenodd" d="M9.20715 1.77507C9.75718 1.02236 10.8609 0.750265 11.7229 1.31805C12.6186 1.908 14.1675 3.04823 15.5006 4.64892C16.8331 6.2488 18 8.37054 18 10.9002C18 15.4058 14.4685 19.0145 10 19.0145C5.53151 19.0145 2 15.4058 2 10.9002C2 9.06513 2.82266 6.72049 4.42591 4.84857C5.12834 4.02843 6.34039 4.07735 7.04854 4.72905L9.20715 1.77507ZM10 17.2113C11.3644 17.2113 12.4706 16.0019 12.4706 14.5098C12.4706 12.9089 11.1706 11.7312 10.4567 11.2051C10.1841 11.0043 9.81591 11.0043 9.54334 11.2051C8.82936 11.7312 7.52941 12.9089 7.52941 14.5098C7.52941 16.0019 8.63558 17.2113 10 17.2113Z" fill="#8D8D8D"/>
</svg>
