<svg width="20" height="20" viewBox="0 0 20 20" fill="none" xmlns="http://www.w3.org/2000/svg">
<path d="M5 3.88885C5 2.66155 5.99492 1.66663 7.22222 1.66663C8.33917 1.66663 9.33758 2.1737 10 2.9702C10.6624 2.1737 11.6608 1.66663 12.7777 1.66663C14.0051 1.66663 15 2.66155 15 3.88885C15 4.60476 14.7917 5.27202 14.4323 5.83329H15.8333C16.7538 5.83329 17.5 6.57948 17.5 7.49996C17.5 8.42046 16.7538 9.16663 15.8333 9.16663H10.8333V5.83329H11.3889C12.4628 5.83329 13.3333 4.96273 13.3333 3.88885C13.3333 3.58203 13.0846 3.33329 12.7777 3.33329C11.7039 3.33329 10.8333 4.20385 10.8333 5.27773V5.83329H9.16667V5.27773C9.16667 4.20385 8.29611 3.33329 7.22222 3.33329C6.9154 3.33329 6.66667 3.58203 6.66667 3.88885C6.66667 4.96273 7.53722 5.83329 8.61108 5.83329H9.16667V9.16663H4.16667C3.24619 9.16663 2.5 8.42046 2.5 7.49996C2.5 6.57948 3.24619 5.83329 4.16667 5.83329H5.56767C5.20833 5.27202 5 4.60476 5 3.88885Z" fill="#8D8D8D"/>
<path d="M10.8334 10.8334H16.6667V15.8334C16.6667 16.7539 15.9205 17.5 15 17.5H10.8334V10.8334Z" fill="#8D8D8D"/>
<path d="M9.16671 10.8334H3.33337V15.8334C3.33337 16.7539 4.07957 17.5 5.00004 17.5H9.16671V10.8334Z" fill="#8D8D8D"/>
</svg>
