<svg width="20" height="20" viewBox="0 0 20 20" fill="none" xmlns="http://www.w3.org/2000/svg">
<path fill-rule="evenodd" clip-rule="evenodd" d="M10 0.833374C10.3452 0.833374 10.625 1.1132 10.625 1.45837V2.50004H15.2083C16.474 2.50004 17.5 3.52606 17.5 4.79171V15.2084C17.5 16.474 16.474 17.5 15.2083 17.5H10.625V18.5417C10.625 18.8869 10.3452 19.1667 10 19.1667C9.65483 19.1667 9.375 18.8869 9.375 18.5417V17.5H4.79167C3.52602 17.5 2.5 16.474 2.5 15.2084V4.79171C2.5 3.52606 3.52602 2.50004 4.79167 2.50004H9.375V1.45837C9.375 1.1132 9.65483 0.833374 10 0.833374ZM6.66667 6.66671H3.75V10H6.66667V13.3334H3.75V15.2084C3.75 15.7837 4.21637 16.25 4.79167 16.25H6.66667V13.3334H9.375V10H6.66667V6.66671H9.375V3.75004H6.66667V6.66671Z" fill="#8D8D8D"/>
</svg>
