<svg width="20" height="20" viewBox="0 0 20 20" fill="none" xmlns="http://www.w3.org/2000/svg">
<mask id="mask0_23049_26702" style="mask-type:alpha" maskUnits="userSpaceOnUse" x="0" y="0" width="20" height="20">
<rect width="20" height="20" fill="#D9D9D9"/>
</mask>
<g mask="url(#mask0_23049_26702)">
<path d="M9.95829 15C10.25 15 10.4965 14.8993 10.6979 14.6979C10.8993 14.4965 11 14.25 11 13.9583C11 13.6666 10.8993 13.4201 10.6979 13.2187C10.4965 13.0173 10.25 12.9166 9.95829 12.9166C9.66663 12.9166 9.4201 13.0173 9.21871 13.2187C9.01732 13.4201 8.91663 13.6666 8.91663 13.9583C8.91663 14.25 9.01732 14.4965 9.21871 14.6979C9.4201 14.8993 9.66663 15 9.95829 15ZM9.20829 11.7916H10.75C10.75 11.3333 10.802 10.9722 10.9062 10.7083C11.0104 10.4444 11.3055 10.0833 11.7916 9.62496C12.1527 9.26385 12.4375 8.9201 12.6458 8.59371C12.8541 8.26732 12.9583 7.87496 12.9583 7.41663C12.9583 6.63885 12.6736 6.04163 12.1041 5.62496C11.5347 5.20829 10.8611 4.99996 10.0833 4.99996C9.29163 4.99996 8.64926 5.20829 8.15621 5.62496C7.66315 6.04163 7.3194 6.54163 7.12496 7.12496L8.49996 7.66663C8.5694 7.41663 8.72565 7.14579 8.96871 6.85413C9.21176 6.56246 9.58329 6.41663 10.0833 6.41663C10.5277 6.41663 10.8611 6.53815 11.0833 6.78121C11.3055 7.02426 11.4166 7.29163 11.4166 7.58329C11.4166 7.86107 11.3333 8.12149 11.1666 8.36454C11 8.6076 10.7916 8.83329 10.5416 9.04163C9.93052 9.58329 9.55551 9.99301 9.41663 10.2708C9.27774 10.5486 9.20829 11.0555 9.20829 11.7916ZM9.99996 18.3333C8.84718 18.3333 7.76385 18.1145 6.74996 17.677C5.73607 17.2395 4.85413 16.6458 4.10413 15.8958C3.35413 15.1458 2.76038 14.2638 2.32288 13.25C1.88538 12.2361 1.66663 11.1527 1.66663 9.99996C1.66663 8.84718 1.88538 7.76385 2.32288 6.74996C2.76038 5.73607 3.35413 4.85413 4.10413 4.10413C4.85413 3.35413 5.73607 2.76038 6.74996 2.32288C7.76385 1.88538 8.84718 1.66663 9.99996 1.66663C11.1527 1.66663 12.2361 1.88538 13.25 2.32288C14.2638 2.76038 15.1458 3.35413 15.8958 4.10413C16.6458 4.85413 17.2395 5.73607 17.677 6.74996C18.1145 7.76385 18.3333 8.84718 18.3333 9.99996C18.3333 11.1527 18.1145 12.2361 17.677 13.25C17.2395 14.2638 16.6458 15.1458 15.8958 15.8958C15.1458 16.6458 14.2638 17.2395 13.25 17.677C12.2361 18.1145 11.1527 18.3333 9.99996 18.3333ZM9.99996 16.6666C11.8611 16.6666 13.4375 16.0208 14.7291 14.7291C16.0208 13.4375 16.6666 11.8611 16.6666 9.99996C16.6666 8.13885 16.0208 6.56246 14.7291 5.27079C13.4375 3.97913 11.8611 3.33329 9.99996 3.33329C8.13885 3.33329 6.56246 3.97913 5.27079 5.27079C3.97913 6.56246 3.33329 8.13885 3.33329 9.99996C3.33329 11.8611 3.97913 13.4375 5.27079 14.7291C6.56246 16.0208 8.13885 16.6666 9.99996 16.6666Z" fill="#8D8D8D"/>
</g>
</svg>
