<svg width="20" height="20" viewBox="0 0 20 20" fill="none" xmlns="http://www.w3.org/2000/svg">
<path d="M16.6667 4.16667C17.1269 4.16667 17.5 3.79357 17.5 3.33333C17.5 2.8731 17.1269 2.5 16.6667 2.5L3.33333 2.5C2.87308 2.5 2.5 2.8731 2.5 3.33333C2.5 3.79357 2.87308 4.16667 3.33333 4.16667L16.6667 4.16667Z" fill="#8D8D8D"/>
<path d="M15 7.91585C15 6.76526 14.0673 5.83252 12.9167 5.83252C11.7661 5.83252 10.8333 6.76526 10.8333 7.91585L10.8333 15.4159C10.8333 16.5664 11.7661 17.4992 12.9167 17.4992C14.0673 17.4992 15 16.5664 15 15.4159L15 7.91585Z" fill="#8D8D8D"/>
<path d="M9.16748 7.91585C9.16748 6.76526 8.23473 5.83252 7.08415 5.83252C5.93356 5.83252 5.00081 6.76526 5.00081 7.91585L5.00081 12.0825C5.00081 13.2331 5.93356 14.1659 7.08415 14.1659C8.23473 14.1659 9.16748 13.2331 9.16748 12.0825L9.16748 7.91585Z" fill="#8D8D8D"/>
</svg>
